<svg width="39" height="138" viewBox="0 0 39 138" fill="none" xmlns="http://www.w3.org/2000/svg">
<path id="Curved" d="M28.4605 6.58605C24.1272 9.64657 19.9831 12.6056 15.8293 15.5423C15.0041 16.1327 14.4211 16.5481 13.2466 17.0675C12.3796 17.4646 10.5177 18.2573 10.1642 17.0076C9.96245 15.9599 9.93322 15.2108 11.2538 14.0038C14.6812 10.91 18.5845 8.51877 22.442 6.11961C25.8499 4.00406 28.4869 2.4573 31.6332 0.812994C33.1027 0.0451701 34.1269 0.739685 34.7058 2.55555C35.2249 4.18535 35.7816 5.85267 36.0363 7.50889C36.9826 13.4806 37.7912 19.4283 38.6554 25.4064C38.7668 26.149 38.892 26.7288 38.9157 27.6112C38.9352 28.6789 39.002 29.4655 38.1072 29.5065C37.2584 29.5554 36.7101 28.1995 36.5444 27.4784C35.0484 21.463 32.1371 9.03281 31.8546 8.38442C30.303 11.2047 28.8085 13.7661 27.4545 16.4554C18.1132 35.2519 10.1661 54.9105 6.81971 77.3831C4.17039 95.1717 3.49851 113.407 5.34817 132.266C5.45116 133.379 5.47205 134.499 5.47345 135.574C5.49434 137.035 5.27588 137.751 4.60653 137.676C3.33602 137.342 3.09805 136.308 2.84755 135.49C2.32847 133.86 2.09049 132.145 1.8539 130.481C-1.11045 108.236 0.389382 87.1268 4.40241 66.6713C8.51979 45.676 16.8078 27.4819 26.632 10.3295C27.1845 9.45413 28.3464 7.10357 28.4605 6.58605Z" fill="#62F4F4"/>
</svg>
