<svg width="13" height="14" viewBox="0 0 13 14" fill="none" xmlns="http://www.w3.org/2000/svg">
<path id="Vector" d="M11.9405 6.31051C12.1102 7.46928 11.9147 8.65272 11.3819 9.69251C10.8491 10.7323 10.0061 11.5755 8.97274 12.1022C7.9394 12.6288 6.76837 12.8121 5.62622 12.626C4.48406 12.4399 3.42893 11.8939 2.61092 11.0656C1.7929 10.2372 1.25365 9.1688 1.06986 8.01224C0.886069 6.85568 1.0671 5.66989 1.58721 4.62353C2.10732 3.57716 2.94002 2.7235 3.96687 2.18398C4.99371 1.64445 6.16242 1.44652 7.30676 1.61835C8.47403 1.79363 9.55468 2.3444 10.3891 3.18933C11.2235 4.03426 11.7674 5.12853 11.9405 6.31051Z" stroke="black" stroke-width="2" stroke-linecap="round" stroke-linejoin="round"/>
</svg>
